<?xml version="1.0" encoding="UTF-8"?>
<!DOCTYPE svg PUBLIC "-//W3C//DTD SVG 1.1//EN" "http://www.w3.org/Graphics/SVG/1.1/DTD/svg11.dtd">
<svg xmlns="http://www.w3.org/2000/svg" version="1.1" width="274px" height="274px"
     style="shape-rendering:geometricPrecision; text-rendering:geometricPrecision; image-rendering:optimizeQuality; fill-rule:evenodd; clip-rule:evenodd"
>
    <g>
        <path style="opacity:0.997" fill="#fdfdfd"
              d="M 30.5,-0.5 C 101.167,-0.5 171.833,-0.5 242.5,-0.5C 258.5,4.16667 268.833,14.5 273.5,30.5C 273.5,101.167 273.5,171.833 273.5,242.5C 268.833,258.5 258.5,268.833 242.5,273.5C 171.833,273.5 101.167,273.5 30.5,273.5C 14.5,268.833 4.16667,258.5 -0.5,242.5C -0.5,236.833 -0.5,231.167 -0.5,225.5C 42.168,225.667 84.8346,225.5 127.5,225C 133.249,224.852 138.915,224.186 144.5,223C 145.635,218.252 145.802,213.419 145,208.5C 143.933,207.809 142.766,207.309 141.5,207C 94.1678,206.5 46.8345,206.333 -0.5,206.5C -0.5,203.833 -0.5,201.167 -0.5,198.5C 47.8446,198.854 96.1779,198.354 144.5,197C 146.942,192.275 147.109,187.441 145,182.5C 144.25,181.874 143.416,181.374 142.5,181C 94.8345,180.5 47.1678,180.333 -0.5,180.5C -0.5,178.167 -0.5,175.833 -0.5,173.5C 47.511,173.846 95.511,173.346 143.5,172C 145.995,169.781 146.995,166.948 146.5,163.5C 147.3,159.525 145.967,156.692 142.5,155C 94.8345,154.5 47.1678,154.333 -0.5,154.5C -0.5,152.167 -0.5,149.833 -0.5,147.5C 47.1771,147.83 94.8438,147.33 142.5,146C 145.203,145.135 146.536,143.301 146.5,140.5C 146.061,136.914 145.394,133.414 144.5,130C 96.1678,129.5 47.8345,129.333 -0.5,129.5C -0.5,126.5 -0.5,123.5 -0.5,120.5C 47.511,120.846 95.511,120.346 143.5,119C 145.949,117.137 146.949,114.637 146.5,111.5C 146.583,108.46 145.916,105.627 144.5,103C 96.1678,102.5 47.8345,102.333 -0.5,102.5C -0.5,99.5 -0.5,96.5 -0.5,93.5C 47.8446,93.8543 96.1779,93.3543 144.5,92C 146.77,87.3286 147.103,82.4953 145.5,77.5C 96.8333,77.5 48.1667,77.5 -0.5,77.5C -0.5,73.8333 -0.5,70.1667 -0.5,66.5C 47.5012,66.6667 95.5012,66.5 143.5,66C 146.99,61.2304 147.49,56.0637 145,50.5C 142.141,49.8266 139.308,48.9932 136.5,48C 90.8345,47.5 45.1679,47.3333 -0.5,47.5C -0.5,41.8333 -0.5,36.1667 -0.5,30.5C 4.16667,14.5 14.5,4.16667 30.5,-0.5 Z"/>
    </g>
    <g>
        <path style="opacity:1" fill="#21b012"
              d="M 170.5,39.5 C 173.044,39.1043 175.211,39.771 177,41.5C 177.499,45.8206 177.666,50.1539 177.5,54.5C 200.714,57.686 219.214,68.686 233,87.5C 239.872,104.263 238.706,120.43 229.5,136C 230.939,138.705 231.939,141.538 232.5,144.5C 230.213,144.724 228.047,145.391 226,146.5C 224.832,145.491 223.665,144.491 222.5,143.5C 203.7,158.959 182.033,166.292 157.5,165.5C 157.223,162.552 157.556,159.719 158.5,157C 178.597,157.521 196.93,152.188 213.5,141C 215.351,139.316 217.018,137.483 218.5,135.5C 214.939,131.899 213.939,127.732 215.5,123C 215.85,121.743 216.517,121.409 217.5,122C 219.667,124.167 221.833,126.333 224,128.5C 233.947,108.568 230.447,91.4016 213.5,77C 202.514,68.8377 190.181,64.3377 176.5,63.5C 175.833,66.8333 175.167,70.1667 174.5,73.5C 170.669,73.7509 167.336,72.5843 164.5,70C 160.783,66.6153 156.783,63.6153 152.5,61C 149.833,58 149.833,55 152.5,52C 159.09,48.5504 165.09,44.3837 170.5,39.5 Z"/>
    </g>
    <g>
        <path style="opacity:1" fill="#092a3a"
              d="M -0.5,47.5 C 45.1679,47.3333 90.8345,47.5 136.5,48C 139.308,48.9932 142.141,49.8266 145,50.5C 147.49,56.0637 146.99,61.2304 143.5,66C 95.5012,66.5 47.5012,66.6667 -0.5,66.5C -0.5,60.1667 -0.5,53.8333 -0.5,47.5 Z"/>
    </g>
    <g>
        <path style="opacity:1" fill="#fef217"
              d="M -0.5,77.5 C 48.1667,77.5 96.8333,77.5 145.5,77.5C 147.103,82.4953 146.77,87.3286 144.5,92C 96.1779,93.3543 47.8446,93.8543 -0.5,93.5C -0.5,88.1667 -0.5,82.8333 -0.5,77.5 Z"/>
    </g>
    <g>
        <path style="opacity:1" fill="#18a3e8"
              d="M -0.5,102.5 C 47.8345,102.333 96.1678,102.5 144.5,103C 145.916,105.627 146.583,108.46 146.5,111.5C 146.949,114.637 145.949,117.137 143.5,119C 95.511,120.346 47.511,120.846 -0.5,120.5C -0.5,114.5 -0.5,108.5 -0.5,102.5 Z"/>
    </g>
    <g>
        <path style="opacity:1" fill="#85d57b"
              d="M 165.5,103.5 C 163.5,103.5 161.5,103.5 159.5,103.5C 159.5,105.833 159.5,108.167 159.5,110.5C 163.371,110.185 167.038,110.518 170.5,111.5C 166.5,111.5 162.5,111.5 158.5,111.5C 158.5,108.5 158.5,105.5 158.5,102.5C 161.059,102.198 163.393,102.532 165.5,103.5 Z"/>
    </g>
    <g>
        <path style="opacity:1" fill="#14ae03"
              d="M 165.5,103.5 C 169.182,103.335 172.848,103.501 176.5,104C 177.435,106.381 177.768,108.881 177.5,111.5C 175.167,111.5 172.833,111.5 170.5,111.5C 167.038,110.518 163.371,110.185 159.5,110.5C 159.5,108.167 159.5,105.833 159.5,103.5C 161.5,103.5 163.5,103.5 165.5,103.5 Z"/>
    </g>
    <g>
        <path style="opacity:1" fill="#29b21a"
              d="M 185.5,106.5 C 192.941,107.703 199.941,110.203 206.5,114C 208.16,116.633 208.66,119.466 208,122.5C 206.951,123.517 205.784,123.684 204.5,123C 198.885,119.178 192.885,116.011 186.5,113.5C 185.526,111.257 185.192,108.924 185.5,106.5 Z"/>
    </g>
    <g>
        <path style="opacity:1" fill="#fef214"
              d="M -0.5,129.5 C 47.8345,129.333 96.1678,129.5 144.5,130C 145.394,133.414 146.061,136.914 146.5,140.5C 146.536,143.301 145.203,145.135 142.5,146C 94.8438,147.33 47.1771,147.83 -0.5,147.5C -0.5,141.5 -0.5,135.5 -0.5,129.5 Z"/>
    </g>
    <g>
        <path style="opacity:1" fill="#24b115"
              d="M 229.5,152.5 C 231.5,152.5 233.5,152.5 235.5,152.5C 235.87,160.903 235.37,169.236 234,177.5C 233.612,178.428 232.945,179.095 232,179.5C 230.234,178.767 228.401,178.433 226.5,178.5C 226.84,172.967 227.506,167.467 228.5,162C 228.349,159.803 228.015,157.636 227.5,155.5C 227.942,154.261 228.609,153.261 229.5,152.5 Z"/>
    </g>
    <g>
        <path style="opacity:1" fill="#17a3e8"
              d="M -0.5,154.5 C 47.1678,154.333 94.8345,154.5 142.5,155C 145.967,156.692 147.3,159.525 146.5,163.5C 146.995,166.948 145.995,169.781 143.5,172C 95.511,173.346 47.511,173.846 -0.5,173.5C -0.5,167.167 -0.5,160.833 -0.5,154.5 Z"/>
    </g>
    <g>
        <path style="opacity:1" fill="#fef215"
              d="M -0.5,180.5 C 47.1678,180.333 94.8345,180.5 142.5,181C 143.416,181.374 144.25,181.874 145,182.5C 147.109,187.441 146.942,192.275 144.5,197C 96.1779,198.354 47.8446,198.854 -0.5,198.5C -0.5,192.5 -0.5,186.5 -0.5,180.5 Z"/>
    </g>
    <g>
        <path style="opacity:1" fill="#24b115"
              d="M 221.5,185.5 C 224.4,185.28 227.067,185.946 229.5,187.5C 226.229,193.102 222.229,198.102 217.5,202.5C 216.359,200.192 214.692,198.359 212.5,197C 215.715,193.291 218.715,189.458 221.5,185.5 Z"/>
    </g>
    <g>
        <path style="opacity:1" fill="#21b011"
              d="M 164.5,199.5 C 167.862,199.07 170.695,200.07 173,202.5C 174.563,208.814 176.063,215.147 177.5,221.5C 176.5,221.5 175.5,221.5 174.5,221.5C 174.622,226.232 174.122,230.898 173,235.5C 169.872,236.942 167.038,236.442 164.5,234C 160.033,230.535 155.867,226.702 152,222.5C 151.333,219.5 151.333,216.5 152,213.5C 156.745,209.26 160.912,204.593 164.5,199.5 Z"/>
    </g>
    <g>
        <path style="opacity:1" fill="#29b219"
              d="M 201.5,203.5 C 206.879,203.2 208.879,205.533 207.5,210.5C 200.933,214.468 193.933,217.468 186.5,219.5C 185.348,216.894 185.182,214.227 186,211.5C 191.715,209.727 196.881,207.061 201.5,203.5 Z"/>
    </g>
    <g>
        <path style="opacity:1" fill="#092a3a"
              d="M -0.5,206.5 C 46.8345,206.333 94.1678,206.5 141.5,207C 142.766,207.309 143.933,207.809 145,208.5C 145.802,213.419 145.635,218.252 144.5,223C 138.915,224.186 133.249,224.852 127.5,225C 84.8346,225.5 42.168,225.667 -0.5,225.5C -0.5,219.167 -0.5,212.833 -0.5,206.5 Z"/>
    </g>
</svg>