<?xml version="1.0" encoding="UTF-8"?>
<!DOCTYPE svg PUBLIC "-//W3C//DTD SVG 1.1//EN" "http://www.w3.org/Graphics/SVG/1.1/DTD/svg11.dtd">
<svg xmlns="http://www.w3.org/2000/svg" version="1.1" width="274px" height="274px"
     style="shape-rendering:geometricPrecision; text-rendering:geometricPrecision; image-rendering:optimizeQuality; fill-rule:evenodd; clip-rule:evenodd"
>
    <g>
        <path style="opacity:1" fill="#ffffff"
              d="M -0.5,-0.5 C 90.8333,-0.5 182.167,-0.5 273.5,-0.5C 273.5,90.8333 273.5,182.167 273.5,273.5C 182.167,273.5 90.8333,273.5 -0.5,273.5C -0.5,257.833 -0.5,242.167 -0.5,226.5C 41.5013,226.667 83.5013,226.5 125.5,226C 131.884,225.758 138.218,225.092 144.5,224C 145,223.5 145.5,223 146,222.5C 146.667,218.167 146.667,213.833 146,209.5C 144.509,207.996 142.676,207.163 140.5,207C 93.5012,206.5 46.5012,206.333 -0.5,206.5C -0.5,203.833 -0.5,201.167 -0.5,198.5C 47.8345,198.667 96.1678,198.5 144.5,198C 145,197.5 145.5,197 146,196.5C 146.667,192.167 146.667,187.833 146,183.5C 144.509,181.996 142.676,181.163 140.5,181C 93.5012,180.5 46.5012,180.333 -0.5,180.5C -0.5,178.167 -0.5,175.833 -0.5,173.5C 46.1679,173.667 92.8345,173.5 139.5,173C 145.528,172.965 147.861,169.965 146.5,164C 147.891,158.581 145.891,155.581 140.5,155C 93.5012,154.5 46.5012,154.333 -0.5,154.5C -0.5,152.167 -0.5,149.833 -0.5,147.5C 46.1679,147.667 92.8345,147.5 139.5,147C 145.528,146.965 147.861,143.965 146.5,138C 146.333,135.833 146.167,133.667 146,131.5C 145.5,131 145,130.5 144.5,130C 96.1678,129.5 47.8345,129.333 -0.5,129.5C -0.5,126.5 -0.5,123.5 -0.5,120.5C 46.1679,120.667 92.8345,120.5 139.5,120C 145.528,119.965 147.861,116.965 146.5,111C 146.333,108.833 146.167,106.667 146,104.5C 145.5,104 145,103.5 144.5,103C 96.1678,102.5 47.8345,102.333 -0.5,102.5C -0.5,99.5 -0.5,96.5 -0.5,93.5C 47.8345,93.6667 96.1678,93.5 144.5,93C 145,92.5 145.5,92 146,91.5C 146.799,86.9132 146.632,82.4132 145.5,78C 96.8345,77.5 48.1678,77.3333 -0.5,77.5C -0.5,74.1667 -0.5,70.8333 -0.5,67.5C 46.1679,67.6667 92.8345,67.5 139.5,67C 145.528,66.9651 147.861,63.9651 146.5,58C 146.333,55.8333 146.167,53.6667 146,51.5C 145.5,51 145,50.5 144.5,50C 139.231,48.8938 133.897,48.2272 128.5,48C 85.5013,47.5 42.5013,47.3333 -0.5,47.5C -0.5,31.5 -0.5,15.5 -0.5,-0.5 Z"/>
    </g>
    <g>
        <path style="opacity:1" fill="#11ae00"
              d="M 172.5,39.5 C 174.993,39.3291 176.826,40.3291 178,42.5C 178.497,46.5239 178.331,50.5239 177.5,54.5C 200.755,57.7033 219.255,68.7033 233,87.5C 241.275,104.566 240.108,120.899 229.5,136.5C 230.833,139.167 232.167,141.833 233.5,144.5C 230.701,145.004 228.201,146.004 226,147.5C 225.417,145.998 224.584,144.665 223.5,143.5C 204.595,159.735 182.595,167.069 157.5,165.5C 157.678,162.784 158.178,160.117 159,157.5C 179.347,158.498 197.847,152.998 214.5,141C 216.167,139.333 217.833,137.667 219.5,136C 215.13,131.912 214.296,127.079 217,121.5C 219.667,124.167 222.333,126.833 225,129.5C 235.545,107.441 230.712,89.2739 210.5,75C 200.202,68.1243 189.035,64.291 177,63.5C 176.82,66.9555 176.153,70.2889 175,73.5C 173.612,74.5536 172.112,74.7203 170.5,74C 163.718,69.552 157.218,64.7186 151,59.5C 150.313,57.0797 150.813,54.913 152.5,53C 159.405,48.7245 166.072,44.2245 172.5,39.5 Z"/>
    </g>
    <g>
        <path style="opacity:0.2" fill="#00a1e8"
              d="M -0.5,47.5 C 42.5013,47.3333 85.5013,47.5 128.5,48C 133.897,48.2272 139.231,48.8938 144.5,50C 145,50.5 145.5,51 146,51.5C 146.167,53.6667 146.333,55.8333 146.5,58C 147.861,63.9651 145.528,66.9651 139.5,67C 92.8345,67.5 46.1679,67.6667 -0.5,67.5C -0.5,60.8333 -0.5,54.1667 -0.5,47.5 Z"/>
    </g>
    <g>
        <path style="opacity:1" fill="#fef200"
              d="M -0.5,77.5 C 48.1678,77.3333 96.8345,77.5 145.5,78C 146.632,82.4132 146.799,86.9132 146,91.5C 145.5,92 145,92.5 144.5,93C 96.1678,93.5 47.8345,93.6667 -0.5,93.5C -0.5,88.1667 -0.5,82.8333 -0.5,77.5 Z"/>
    </g>
    <g>
        <path style="opacity:1" fill="#00a1e8"
              d="M -0.5,102.5 C 47.8345,102.333 96.1678,102.5 144.5,103C 145,103.5 145.5,104 146,104.5C 146.167,106.667 146.333,108.833 146.5,111C 147.861,116.965 145.528,119.965 139.5,120C 92.8345,120.5 46.1679,120.667 -0.5,120.5C -0.5,114.5 -0.5,108.5 -0.5,102.5 Z"/>
    </g>
    <g>
        <path style="opacity:1" fill="#11ae00"
              d="M 159.5,103.5 C 165.176,103.334 170.843,103.501 176.5,104C 178.662,106.522 178.995,109.355 177.5,112.5C 171.561,111.543 165.561,111.21 159.5,111.5C 159.5,108.833 159.5,106.167 159.5,103.5 Z"/>
    </g>
    <g>
        <path style="opacity:1" fill="#11ae00"
              d="M 186.5,106.5 C 193.951,108.226 200.951,111.059 207.5,115C 210.272,124.921 207.938,126.588 200.5,120C 195.491,117.828 190.491,115.662 185.5,113.5C 186.374,111.253 186.708,108.92 186.5,106.5 Z"/>
    </g>
    <g>
        <path style="opacity:1" fill="#fef200"
              d="M -0.5,129.5 C 47.8345,129.333 96.1678,129.5 144.5,130C 145,130.5 145.5,131 146,131.5C 146.167,133.667 146.333,135.833 146.5,138C 147.861,143.965 145.528,146.965 139.5,147C 92.8345,147.5 46.1679,147.667 -0.5,147.5C -0.5,141.5 -0.5,135.5 -0.5,129.5 Z"/>
    </g>
    <g>
        <path style="opacity:1" fill="#11ae00"
              d="M 234.5,152.5 C 235.117,152.611 235.617,152.944 236,153.5C 236.856,161.232 236.523,168.898 235,176.5C 234.71,178.044 234.044,179.377 233,180.5C 231.246,178.75 229.079,178.083 226.5,178.5C 227.593,173.518 228.593,168.518 229.5,163.5C 228.873,160.298 228.206,157.131 227.5,154C 230.036,153.814 232.369,153.314 234.5,152.5 Z"/>
    </g>
    <g>
        <path style="opacity:1" fill="#00a1e8"
              d="M -0.5,154.5 C 46.5012,154.333 93.5012,154.5 140.5,155C 145.891,155.581 147.891,158.581 146.5,164C 147.861,169.965 145.528,172.965 139.5,173C 92.8345,173.5 46.1679,173.667 -0.5,173.5C -0.5,167.167 -0.5,160.833 -0.5,154.5 Z"/>
    </g>
    <g>
        <path style="opacity:1" fill="#fef200"
              d="M -0.5,180.5 C 46.5012,180.333 93.5012,180.5 140.5,181C 142.676,181.163 144.509,181.996 146,183.5C 146.667,187.833 146.667,192.167 146,196.5C 145.5,197 145,197.5 144.5,198C 96.1678,198.5 47.8345,198.667 -0.5,198.5C -0.5,192.5 -0.5,186.5 -0.5,180.5 Z"/>
    </g>
    <g>
        <path style="opacity:1" fill="#11ae00"
              d="M 222.5,185.5 C 225.203,185.952 227.87,186.619 230.5,187.5C 227.058,193.377 222.891,198.71 218,203.5C 216.956,202.377 216.29,201.044 216,199.5C 214.933,198.809 213.766,198.309 212.5,198C 216.047,193.959 219.38,189.792 222.5,185.5 Z"/>
    </g>
    <g>
        <path style="opacity:1" fill="#14ae02"
              d="M 165.5,200.5 C 168.97,199.875 171.804,200.875 174,203.5C 174.693,210.562 176.193,216.562 178.5,221.5C 177.167,221.5 175.833,221.5 174.5,221.5C 174.666,226.179 174.499,230.845 174,235.5C 172.806,236.43 171.473,237.097 170,237.5C 163.384,233.199 157.384,228.199 152,222.5C 152.141,220.538 151.974,218.704 151.5,217C 151.862,215.775 152.362,214.609 153,213.5C 157.37,209.298 161.537,204.964 165.5,200.5 Z"/>
    </g>
    <g>
        <path style="opacity:1" fill="#11ae00"
              d="M 203.5,203.5 C 206.019,203.848 207.853,205.181 209,207.5C 209.749,208.635 209.583,209.635 208.5,210.5C 201.797,215.067 194.464,218.067 186.5,219.5C 186.768,216.881 186.435,214.381 185.5,212C 192.227,210.467 198.227,207.634 203.5,203.5 Z"/>
    </g>
    <g>
        <path style="opacity:0.2" fill="#00a1e8"
              d="M -0.5,206.5 C 46.5012,206.333 93.5012,206.5 140.5,207C 142.676,207.163 144.509,207.996 146,209.5C 146.667,213.833 146.667,218.167 146,222.5C 145.5,223 145,223.5 144.5,224C 138.218,225.092 131.884,225.758 125.5,226C 83.5013,226.5 41.5013,226.667 -0.5,226.5C -0.5,219.833 -0.5,213.167 -0.5,206.5 Z"/>
    </g>
</svg>