<?xml version="1.0" encoding="UTF-8"?>
<svg xmlns="http://www.w3.org/2000/svg" xmlns:xlink="http://www.w3.org/1999/xlink" width="16px" height="16px"
     viewBox="0 0 16 16" version="1.1">
    <defs>
        <filter id="alpha" filterUnits="objectBoundingBox" x="0%" y="0%" width="100%" height="100%">
            <feColorMatrix type="matrix" in="SourceGraphic" values="0 0 0 0 1 0 0 0 0 1 0 0 0 0 1 0 0 0 1 0"/>
        </filter>
        <mask id="mask0">
            <g filter="url(#alpha)">
                <rect x="0" y="0" width="16" height="16" style="fill:rgb(0%,0%,0%);fill-opacity:0.996078;stroke:none;"/>
            </g>
        </mask>
        <clipPath id="clip1">
            <rect x="0" y="0" width="16" height="16"/>
        </clipPath>
        <g id="surface5" clip-path="url(#clip1)">
            <path style=" stroke:none;fill-rule:evenodd;fill:rgb(99.215686%,99.215686%,99.215686%);fill-opacity:1;"
                  d="M 1.78125 -0.0273438 C 5.90625 -0.0273438 10.035156 -0.0273438 14.160156 -0.0273438 C 15.09375 0.242188 15.699219 0.847656 15.972656 1.78125 C 15.972656 5.90625 15.972656 10.035156 15.972656 14.160156 C 15.699219 15.09375 15.09375 15.699219 14.160156 15.972656 C 10.035156 15.972656 5.90625 15.972656 1.78125 15.972656 C 0.847656 15.699219 0.242188 15.09375 -0.0273438 14.160156 C -0.0273438 13.828125 -0.0273438 13.5 -0.0273438 13.167969 C 2.460938 13.175781 4.953125 13.167969 7.445312 13.140625 C 7.78125 13.128906 8.113281 13.089844 8.4375 13.023438 C 8.503906 12.746094 8.515625 12.460938 8.46875 12.175781 C 8.40625 12.136719 8.335938 12.105469 8.261719 12.085938 C 5.5 12.058594 2.734375 12.046875 -0.0273438 12.058594 C -0.0273438 11.902344 -0.0273438 11.746094 -0.0273438 11.589844 C 2.792969 11.613281 5.617188 11.582031 8.4375 11.503906 C 8.582031 11.226562 8.589844 10.945312 8.46875 10.65625 C 8.421875 10.621094 8.375 10.589844 8.320312 10.570312 C 5.539062 10.539062 2.753906 10.53125 -0.0273438 10.539062 C -0.0273438 10.402344 -0.0273438 10.269531 -0.0273438 10.132812 C 2.773438 10.152344 5.578125 10.121094 8.378906 10.042969 C 8.523438 9.914062 8.582031 9.75 8.554688 9.546875 C 8.601562 9.316406 8.523438 9.148438 8.320312 9.050781 C 5.539062 9.023438 2.753906 9.011719 -0.0273438 9.023438 C -0.0273438 8.886719 -0.0273438 8.75 -0.0273438 8.613281 C 2.753906 8.632812 5.539062 8.601562 8.320312 8.527344 C 8.480469 8.476562 8.558594 8.367188 8.554688 8.203125 C 8.527344 7.996094 8.488281 7.789062 8.4375 7.589844 C 5.617188 7.5625 2.792969 7.550781 -0.0273438 7.5625 C -0.0273438 7.386719 -0.0273438 7.210938 -0.0273438 7.035156 C 2.773438 7.058594 5.578125 7.027344 8.378906 6.949219 C 8.523438 6.839844 8.582031 6.695312 8.554688 6.511719 C 8.558594 6.332031 8.519531 6.167969 8.4375 6.015625 C 5.617188 5.984375 2.792969 5.976562 -0.0273438 5.984375 C -0.0273438 5.808594 -0.0273438 5.636719 -0.0273438 5.460938 C 2.792969 5.480469 5.617188 5.453125 8.4375 5.371094 C 8.570312 5.097656 8.589844 4.816406 8.496094 4.527344 C 5.65625 4.527344 2.8125 4.527344 -0.0273438 4.527344 C -0.0273438 4.3125 -0.0273438 4.097656 -0.0273438 3.882812 C 2.773438 3.894531 5.578125 3.882812 8.378906 3.855469 C 8.582031 3.574219 8.613281 3.273438 8.46875 2.949219 C 8.300781 2.910156 8.136719 2.859375 7.972656 2.804688 C 5.304688 2.773438 2.636719 2.765625 -0.0273438 2.773438 C -0.0273438 2.441406 -0.0273438 2.113281 -0.0273438 1.78125 C 0.242188 0.847656 0.847656 0.242188 1.78125 -0.0273438 Z M 1.78125 -0.0273438 "/>
        </g>
    </defs>
    <g id="surface1">
        <use xlink:href="#surface5" mask="url(#mask0)"/>
        <path style=" stroke:none;fill-rule:evenodd;fill:rgb(12.941176%,69.019608%,7.058824%);fill-opacity:1;"
              d="M 9.957031 2.304688 C 10.105469 2.285156 10.230469 2.324219 10.335938 2.421875 C 10.363281 2.675781 10.375 2.929688 10.363281 3.183594 C 11.71875 3.367188 12.800781 4.011719 13.605469 5.109375 C 14.007812 6.089844 13.9375 7.03125 13.402344 7.941406 C 13.484375 8.097656 13.542969 8.265625 13.578125 8.4375 C 13.441406 8.449219 13.316406 8.488281 13.195312 8.554688 C 13.128906 8.496094 13.0625 8.4375 12.992188 8.378906 C 11.894531 9.28125 10.628906 9.710938 9.195312 9.664062 C 9.179688 9.492188 9.199219 9.328125 9.253906 9.167969 C 10.429688 9.199219 11.5 8.886719 12.46875 8.234375 C 12.574219 8.136719 12.671875 8.027344 12.757812 7.914062 C 12.550781 7.703125 12.492188 7.457031 12.582031 7.183594 C 12.605469 7.109375 12.644531 7.089844 12.699219 7.125 C 12.828125 7.25 12.953125 7.378906 13.082031 7.503906 C 13.660156 6.339844 13.457031 5.335938 12.46875 4.496094 C 11.824219 4.019531 11.105469 3.757812 10.304688 3.707031 C 10.269531 3.902344 10.230469 4.097656 10.191406 4.292969 C 9.964844 4.304688 9.769531 4.238281 9.605469 4.085938 C 9.390625 3.890625 9.15625 3.714844 8.90625 3.5625 C 8.75 3.386719 8.75 3.210938 8.90625 3.035156 C 9.289062 2.835938 9.640625 2.589844 9.957031 2.304688 Z M 9.957031 2.304688 "/>
        <path style=" stroke:none;fill-rule:evenodd;fill:rgb(3.529412%,16.470588%,22.745098%);fill-opacity:1;"
              d="M -0.0273438 2.773438 C 2.636719 2.765625 5.304688 2.773438 7.972656 2.804688 C 8.136719 2.859375 8.300781 2.910156 8.46875 2.949219 C 8.613281 3.273438 8.582031 3.574219 8.378906 3.855469 C 5.578125 3.882812 2.773438 3.894531 -0.0273438 3.882812 C -0.0273438 3.511719 -0.0273438 3.144531 -0.0273438 2.773438 Z M -0.0273438 2.773438 "/>
        <path style=" stroke:none;fill-rule:evenodd;fill:rgb(99.607843%,94.901961%,9.019608%);fill-opacity:1;"
              d="M -0.0273438 4.527344 C 2.8125 4.527344 5.65625 4.527344 8.496094 4.527344 C 8.589844 4.816406 8.570312 5.097656 8.4375 5.371094 C 5.617188 5.453125 2.792969 5.480469 -0.0273438 5.460938 C -0.0273438 5.148438 -0.0273438 4.835938 -0.0273438 4.527344 Z M -0.0273438 4.527344 "/>
        <path style=" stroke:none;fill-rule:evenodd;fill:rgb(9.411765%,63.921569%,90.980392%);fill-opacity:1;"
              d="M -0.0273438 5.984375 C 2.792969 5.976562 5.617188 5.984375 8.4375 6.015625 C 8.519531 6.167969 8.558594 6.332031 8.554688 6.511719 C 8.582031 6.695312 8.523438 6.839844 8.378906 6.949219 C 5.578125 7.027344 2.773438 7.058594 -0.0273438 7.035156 C -0.0273438 6.6875 -0.0273438 6.335938 -0.0273438 5.984375 Z M -0.0273438 5.984375 "/>
        <path style=" stroke:none;fill-rule:evenodd;fill:rgb(52.156863%,83.529412%,48.235294%);fill-opacity:1;"
              d="M 9.664062 6.042969 C 9.546875 6.042969 9.429688 6.042969 9.3125 6.042969 C 9.3125 6.179688 9.3125 6.316406 9.3125 6.453125 C 9.539062 6.433594 9.753906 6.453125 9.957031 6.511719 C 9.722656 6.511719 9.488281 6.511719 9.253906 6.511719 C 9.253906 6.335938 9.253906 6.160156 9.253906 5.984375 C 9.40625 5.96875 9.542969 5.988281 9.664062 6.042969 Z M 9.664062 6.042969 "/>
        <path style=" stroke:none;fill-rule:evenodd;fill:rgb(7.843137%,68.235294%,1.176471%);fill-opacity:1;"
              d="M 9.664062 6.042969 C 9.878906 6.035156 10.09375 6.042969 10.304688 6.074219 C 10.359375 6.210938 10.378906 6.359375 10.363281 6.511719 C 10.230469 6.511719 10.09375 6.511719 9.957031 6.511719 C 9.753906 6.453125 9.539062 6.433594 9.3125 6.453125 C 9.3125 6.316406 9.3125 6.179688 9.3125 6.042969 C 9.429688 6.042969 9.546875 6.042969 9.664062 6.042969 Z M 9.664062 6.042969 "/>
        <path style=" stroke:none;fill-rule:evenodd;fill:rgb(16.078431%,69.803922%,10.196078%);fill-opacity:1;"
              d="M 10.832031 6.21875 C 11.265625 6.289062 11.675781 6.433594 12.058594 6.65625 C 12.15625 6.8125 12.183594 6.976562 12.144531 7.152344 C 12.085938 7.210938 12.015625 7.222656 11.941406 7.183594 C 11.613281 6.960938 11.261719 6.773438 10.890625 6.628906 C 10.832031 6.496094 10.8125 6.359375 10.832031 6.21875 Z M 10.832031 6.21875 "/>
        <path style=" stroke:none;fill-rule:evenodd;fill:rgb(99.607843%,94.901961%,7.843137%);fill-opacity:1;"
              d="M -0.0273438 7.5625 C 2.792969 7.550781 5.617188 7.5625 8.4375 7.589844 C 8.488281 7.789062 8.527344 7.996094 8.554688 8.203125 C 8.558594 8.367188 8.480469 8.476562 8.320312 8.527344 C 5.539062 8.601562 2.753906 8.632812 -0.0273438 8.613281 C -0.0273438 8.261719 -0.0273438 7.914062 -0.0273438 7.5625 Z M -0.0273438 7.5625 "/>
        <path style=" stroke:none;fill-rule:evenodd;fill:rgb(14.117647%,69.411765%,8.235294%);fill-opacity:1;"
              d="M 13.402344 8.90625 C 13.519531 8.90625 13.636719 8.90625 13.75 8.90625 C 13.773438 9.394531 13.746094 9.882812 13.664062 10.363281 C 13.640625 10.417969 13.601562 10.457031 13.546875 10.480469 C 13.445312 10.4375 13.335938 10.417969 13.226562 10.421875 C 13.246094 10.101562 13.285156 9.777344 13.34375 9.460938 C 13.335938 9.332031 13.316406 9.203125 13.285156 9.082031 C 13.308594 9.007812 13.347656 8.949219 13.402344 8.90625 Z M 13.402344 8.90625 "/>
        <path style=" stroke:none;fill-rule:evenodd;fill:rgb(9.019608%,63.921569%,90.980392%);fill-opacity:1;"
              d="M -0.0273438 9.023438 C 2.753906 9.011719 5.539062 9.023438 8.320312 9.050781 C 8.523438 9.148438 8.601562 9.316406 8.554688 9.546875 C 8.582031 9.75 8.523438 9.914062 8.378906 10.042969 C 5.578125 10.121094 2.773438 10.152344 -0.0273438 10.132812 C -0.0273438 9.761719 -0.0273438 9.390625 -0.0273438 9.023438 Z M -0.0273438 9.023438 "/>
        <path style=" stroke:none;fill-rule:evenodd;fill:rgb(99.607843%,94.901961%,8.235294%);fill-opacity:1;"
              d="M -0.0273438 10.539062 C 2.753906 10.53125 5.539062 10.539062 8.320312 10.570312 C 8.375 10.589844 8.421875 10.621094 8.46875 10.65625 C 8.589844 10.945312 8.582031 11.226562 8.4375 11.503906 C 5.617188 11.582031 2.792969 11.613281 -0.0273438 11.589844 C -0.0273438 11.242188 -0.0273438 10.890625 -0.0273438 10.539062 Z M -0.0273438 10.539062 "/>
        <path style=" stroke:none;fill-rule:evenodd;fill:rgb(14.117647%,69.411765%,8.235294%);fill-opacity:1;"
              d="M 12.933594 10.832031 C 13.105469 10.820312 13.257812 10.859375 13.402344 10.949219 C 13.210938 11.277344 12.976562 11.566406 12.699219 11.824219 C 12.632812 11.691406 12.535156 11.582031 12.410156 11.503906 C 12.597656 11.285156 12.773438 11.0625 12.933594 10.832031 Z M 12.933594 10.832031 "/>
        <path style=" stroke:none;fill-rule:evenodd;fill:rgb(12.941176%,69.019608%,6.666667%);fill-opacity:1;"
              d="M 9.605469 11.648438 C 9.800781 11.625 9.96875 11.683594 10.101562 11.824219 C 10.195312 12.195312 10.28125 12.5625 10.363281 12.933594 C 10.304688 12.933594 10.25 12.933594 10.191406 12.933594 C 10.195312 13.210938 10.167969 13.484375 10.101562 13.75 C 9.917969 13.835938 9.753906 13.808594 9.605469 13.664062 C 9.34375 13.460938 9.101562 13.238281 8.875 12.992188 C 8.835938 12.816406 8.835938 12.640625 8.875 12.46875 C 9.152344 12.21875 9.394531 11.945312 9.605469 11.648438 Z M 9.605469 11.648438 "/>
        <path style=" stroke:none;fill-rule:evenodd;fill:rgb(16.078431%,69.803922%,9.803922%);fill-opacity:1;"
              d="M 11.765625 11.882812 C 12.082031 11.867188 12.199219 12 12.117188 12.292969 C 11.734375 12.523438 11.324219 12.699219 10.890625 12.816406 C 10.824219 12.664062 10.8125 12.507812 10.859375 12.351562 C 11.195312 12.246094 11.496094 12.089844 11.765625 11.882812 Z M 11.765625 11.882812 "/>
        <path style=" stroke:none;fill-rule:evenodd;fill:rgb(3.529412%,16.470588%,22.745098%);fill-opacity:1;"
              d="M -0.0273438 12.058594 C 2.734375 12.046875 5.5 12.058594 8.261719 12.085938 C 8.335938 12.105469 8.40625 12.136719 8.46875 12.175781 C 8.515625 12.460938 8.503906 12.746094 8.4375 13.023438 C 8.113281 13.089844 7.78125 13.128906 7.445312 13.140625 C 4.953125 13.167969 2.460938 13.175781 -0.0273438 13.167969 C -0.0273438 12.796875 -0.0273438 12.429688 -0.0273438 12.058594 Z M -0.0273438 12.058594 "/>
    </g>
</svg>